# xmcd
#
# Track frame offsets:
#	150
#	18391
#	37155
#	57663
#	74936
#	91744
#	107229
#	128052
#	155587
#
# Disc length: 2309 seconds
#
# Revision: 1
# Processed by: cddbd v1.5.2PL0 Copyright (c) Steve Scherf et al.
# Submitted via: audiograbber 1.83.01
#
DISCID=83090309
DTITLE=Geoffrey Secco - Element of Sun
DYEAR=2015
DGENRE=Jazz
TTITLE0=Whelk Song
TTITLE1=Diphonic Water
TTITLE2=Luminus Morning
TTITLE3=Australian Sky
TTITLE4=Element Of Sun
TTITLE5=Aluminium Cloud
TTITLE6=Karmik Link
TTITLE7=Le Vent Trilok
TTITLE8=Geoffrey SECCO - Bardo En Do
EXTD=YEAR: 2015
EXTT0=
EXTT1=
EXTT2=
EXTT3=
EXTT4=
EXTT5=
EXTT6=
EXTT7=
EXTT8=
PLAYORDER=
